#Unknown ASF file
:ROOT_YZX
:FOOT_3DOF
:FULLY-SPECIFIED
:DEGREES
44
root 7.268 17.6129 0.140585 0.297901 -177.596 -7.69232
lfemur -32.0926 0.327546 -12.7328
ltibia 33.4156
lfoot -5.69547 0 -2.28054
ltoes -13.3092
rfemur 14.5584 3.55253 32.3413
rtibia 22.2267
rfoot -11.9502 0 0.469973
rtoes -54.6154
lowerback 9.87548 3.09494 3.43902
upperback 1.74749 4.34329 2.53619
thorax -3.64429 2.02076 0.157631
lowerneck -14.9942 -7.29332 -18.0978
upperneck 20.5382 -9.10206 12.1443
head 10.4588 -4.53864 6.04981
lclavicle -1.65053e-014 -1.69464e-014
lhumerus -41.8355 21.1988 73.7312
lradius 20.0209
lwrist -10.3731
lhand -13.1779 27.5321
lfingers 7.12502
lthumb 12.9217 57.112
rclavicle -1.65053e-014 -1.69464e-014
rhumerus -26.324 -3.90345 -77.862
rradius 38.6687
rwrist -3.02538
rhand -24.68 13.3224
rfingers 7.12502
rthumb 1.82066 -16.6495
45
root 7.13538 17.7059 -0.587928 -0.146907 -176.767 -7.19065
lfemur -29.4917 0.607534 -14.0362
ltibia 34.3064
lfoot -4.43912 0 -1.97103
ltoes -11.498
rfemur 11.8564 0.827545 30.5015
rtibia 30.6853
rfoot -14.5266 0 8.60688
rtoes -54.7482
lowerback 9.59051 3.01813 3.08279
upperback 1.72856 4.20698 2.25209
thorax -3.51356 1.97075 0.0923402
lowerneck -14.3812 -7.11577 -17.9044
upperneck 20.9202 -9.12597 12.1543
head 10.4702 -4.58746 6.03737
lclavicle -7.29291e-015 6.55989e-015
lhumerus -42.3748 19.8966 73.9011
lradius 20.9616
lwrist -9.08219
lhand -12.2764 29.3354
lfingers 7.12502
lthumb 13.7906 58.8583
rclavicle -7.29291e-015 6.55989e-015
rhumerus -28.1081 -4.99179 -78.1048
rradius 38.3833
rwrist -3.95727
rhand -25.2936 12.4094
rfingers 7.12502
rthumb 1.22797 -17.5668
46
root 7.00963 17.7716 -1.24887 -0.385625 -176.397 -6.61102
lfemur -27.2355 1.63926 -15.2316
ltibia 34.8555
lfoot -4.6501 0 -4.02912
ltoes -12.008
rfemur 6.48949 -2.22906 28.2096
rtibia 41.2911
rfoot -16.9696 0 20.3621
rtoes -54.5886
lowerback 9.69722 2.98878 2.40818
upperback 1.70804 4.11413 2.12177
thorax -3.6348 1.93661 0.336514
lowerneck -14.6503 -6.96982 -17.6311
upperneck 21.3939 -8.93655 11.8836
head 10.6312 -4.5153 5.92689
lclavicle -1.04933e-013 -9.54166e-015
lhumerus -42.4704 17.7241 75.3502
lradius 22.689
lwrist -6.43223
lhand -10.5363 30.6771
lfingers 7.12502
lthumb 15.4671 60.0783
rclavicle -1.04933e-013 -9.54166e-015
rhumerus -29.2892 -4.71589 -78.4739
rradius 37.9044
rwrist -3.89976
rhand -24.2149 13.3097
rfingers 7.12502
rthumb 2.26978 -16.658
47
root 6.89743 17.8016 -1.89737 -1.04348 -175.757 -4.66224
lfemur -24.296 2.45102 -17.8759
ltibia 35.2586
lfoot -6.28325 0 -5.46755
ltoes -9.42429
rfemur 1.25026 -4.91004 24.5175
rtibia 52.0035
rfoot -17.6026 0 28.7976
rtoes -52.8297
lowerback 10.0129 2.83511 0.289514
upperback 1.77831 3.70371 1.71506
thorax -3.84985 1.76677 1.13386
lowerneck -14.5112 -6.62646 -17.4643
upperneck 21.6522 -8.54569 11.787
head 10.6153 -4.35652 5.93396
lclavicle -2.80286e-014 6.55989e-015
lhumerus -42.502 14.7641 77.3745
lradius 24.8703
lwrist -3.37511
lhand -9.73082 30.3136
lfingers 7.12502
lthumb 16.2428 59.6532
rclavicle -2.80286e-014 6.55989e-015
rhumerus -30.5109 -4.08607 -79.005
rradius 37.5582
rwrist -3.16581
rhand -22.0577 12.3536
rfingers 7.12502
rthumb 4.35308 -17.5816
48
root 6.78047 17.79 -2.50094 -2.16708 -174.933 -3.03412
lfemur -21.0738 3.066 -20.0585
ltibia 35.8869
lfoot -8.77868 0 -6.45382
ltoes -9.72767
rfemur -3.3521 -6.72254 21.5086
rtibia 61.2197
rfoot -15.2039 0 35.9761
rtoes -48.7528
lowerback 10.9256 2.49671 -1.25283
upperback 2.00289 3.05398 1.43782
thorax -4.17401 1.45529 1.76801
lowerneck -14.6015 -6.19222 -17.3158
upperneck 22.042 -7.96741 11.6131
head 10.6583 -4.1169 5.9435
lclavicle 2.26801e-014 1.04362e-014
lhumerus -42.0273 11.835 79.4537
lradius 26.7388
lwrist -0.829089
lhand -10.4169 29.6398
lfingers 7.12502
lthumb 15.5821 59.0321
rclavicle 2.26801e-014 1.04362e-014
rhumerus -31.5667 -3.31519 -79.6825
rradius 37.2841
rwrist -1.62026
rhand -21.0243 14.1362
rfingers 7.12502
rthumb 5.35086 -15.7762
49
root 6.64323 17.7737 -3.09932 -3.49651 -174.335 -1.60812
lfemur -17.4652 2.84045 -22.0078
ltibia 36.2552
lfoot -11.2665 0 -6.11885
ltoes -13.496
rfemur -7.41326 -8.50307 18.6102
rtibia 68.3548
rfoot -13.3364 0 35.3063
rtoes -48.2319
lowerback 11.2172 2.23234 -2.4464
upperback 2.80115 2.48685 1.34935
thorax -3.5252 1.14353 2.43755
lowerneck -15.0638 -5.93616 -17.1567
upperneck 22.1973 -7.41067 11.0879
head 10.683 -3.8858 5.80231
lclavicle 7.14382e-015 -1.14425e-014
lhumerus -39.9669 11.0459 80.7952
lradius 27.0623
lwrist -1.53498
lhand -10.8606 28.362
lfingers 7.12502
lthumb 15.1548 57.7871
rclavicle 7.14382e-015 -1.14425e-014
rhumerus -31.1776 -3.1473 -79.9691
rradius 36.2936
rwrist -0.350343
rhand -20.6478 14.7115
rfingers 7.12502
rthumb 5.71438 -15.1915
50
root 6.55542 17.7434 -3.68062 -4.30169 -174.165 -0.844602
lfemur -14.363 2.36342 -22.9076
ltibia 36.342
lfoot -13.3525 0 -5.4461
ltoes -13.0725
rfemur -12.0941 -9.07762 17.4811
rtibia 73.5342
rfoot -10.651 0 28.2185
rtoes -49.143
lowerback 11.2213 2.14612 -3.41308
upperback 3.03911 2.24422 1.39055
thorax -3.30267 1.01363 3.06521
lowerneck -14.5679 -5.46173 -16.6998
upperneck 22.5399 -6.93052 10.6746
head 10.5941 -3.72004 5.65467
lclavicle 6.83322e-015 4.07509e-015
lhumerus -37.9554 10.2867 81.5476
lradius 27.2691
lwrist -2.25648
lhand -11.2164 29.105
lfingers 7.12502
lthumb 14.8121 58.5557
rclavicle 6.83322e-015 4.07509e-015
rhumerus -32.0916 -4.44023 -80.1232
rradius 35.8185
rwrist 0.813145
rhand -21.5667 14.0108
rfingers 7.12502
rthumb 4.82713 -15.9142
51
root 6.4495 17.7253 -4.23092 -4.90755 -173.885 0.555821
lfemur -11.075 2.0857 -24.6395
ltibia 35.472
lfoot -14.735 0 -5.0621
ltoes -9.53086
rfemur -16.5391 -8.85637 15.8916
rtibia 75.8397
rfoot -9.8822 0 19.7456
rtoes -49.431
lowerback 11.1532 1.94125 -4.65163
upperback 3.08309 1.82736 1.18366
thorax -3.21643 0.809659 3.61116
lowerneck -14.3047 -4.86619 -16.3476
upperneck 23.4633 -6.31798 10.3179
head 10.7513 -3.52484 5.57594
lclavicle -6.68413e-015 -4.57205e-015
lhumerus -35.5791 10.5894 81.6896
lradius 26.1669
lwrist -3.30513
lhand -12.3479 27.9795
lfingers 7.12502
lthumb 13.7217 57.507
rclavicle -6.68413e-015 -4.57205e-015
rhumerus -32.771 -5.863 -80.2207
rradius 34.4036
rwrist 0.944239
rhand -21.9898 13.7136
rfingers 7.12502
rthumb 4.41859 -16.2203
52
root 6.36409 17.7018 -4.76652 -5.20412 -173.115 1.42565
lfemur -8.37108 1.71625 -25.7045
ltibia 34.9477
lfoot -16.0654 0 -5.0421
ltoes -10.4315
rfemur -20.2596 -8.39297 15.3039
rtibia 74.582
rfoot -9.92054 0 11.6243
rtoes -49.6913
lowerback 10.8945 1.49685 -5.35315
upperback 2.90585 1.19007 1.10819
thorax -3.20754 0.51035 4.0216
lowerneck -13.1515 -4.29844 -16.3121
upperneck 24.1614 -5.91396 10.177
head 10.705 -3.46869 5.598
lclavicle -3.14328e-014 1.39149e-015
lhumerus -33.4585 10.5489 81.8664
lradius 25.369
lwrist -3.76671
lhand -12.5688 28.1133
lfingers 7.12502
lthumb 13.5088 57.6551
rclavicle -3.14328e-014 1.39149e-015
rhumerus -32.9429 -7.25261 -80.2211
rradius 31.3037
rwrist 0.277511
rhand -22.2709 13.5703
rfingers 7.12502
rthumb 4.14722 -16.3691
